<svg enable-background="new 0 0 533.333 533.333" height="533.333" viewBox="0 0 533.333 533.333" width="533.333" xmlns="http://www.w3.org/2000/svg"><path d="m466.667 233.333h8.333c13.751 0 25-11.25 25-25v-83.333c0-13.75-11.249-25-25-25h-8.333v-100h-66.667v100h-8.333c-13.75 0-25 11.25-25 25v83.333c0 13.75 11.25 25 25 25h8.333v300h66.667zm-66.667-100h66.667v66.667h-66.667zm-91.666 300c13.75 0 25-11.249 25-25v-83.333c0-13.75-11.25-25-25-25h-8.334v-300h-66.667v300h-8.333c-13.75 0-25 11.25-25 25v83.333c0 13.751 11.25 25 25 25h8.333v100h66.667v-100zm-75.001-100h66.667v66.667h-66.667zm-91.666-100c13.75 0 25-11.25 25-25v-83.333c0-13.75-11.25-25-25-25h-8.333v-100h-66.667v100h-8.333c-13.75 0-25 11.25-25 25v83.333c0 13.75 11.25 25 25 25h8.333v300h66.667v-300zm-75-100h66.667v66.667h-66.667z" fill="#577ca1"/></svg>