<svg enable-background="new 0 0 320.937 320.937" height="512" viewBox="0 0 320.937 320.937" width="512" xmlns="http://www.w3.org/2000/svg"><path d="m305.912 188.117c.771-6.093 1.176-12.243 1.176-18.413 0-31.363-10.019-60.367-26.858-84.23 3.201-4.383 5-9.602 4.987-15.135-.013-6.864-2.699-13.316-7.564-18.169-31.324-31.19-72.905-48.369-117.084-48.369-44.319 0-85.991 17.269-117.328 48.613-9.023 9.03-9.839 23.117-2.603 33.156-16.8 23.844-26.787 52.809-26.787 84.127 0 6.163.405 12.307 1.176 18.4-11.838 15.174-17.449 35.007-14.043 55.2 5.701 33.831 34.531 58.426 68.735 58.863 5.726 9.075 15.739 14.975 27.063 14.975 1.78 0 3.593-.148 5.36-.443 17.475-2.944 29.3-19.557 26.363-37.031l-18.945-112.496c-2.609-15.527-15.926-26.793-31.659-26.793-1.787 0-3.593.148-5.366.45-8.464 1.427-15.868 6.061-20.842 13.053-2.474 3.477-4.19 7.327-5.129 11.363-7.237 2.622-13.843 6.305-19.653 10.9-.103-2.147-.199-4.287-.199-6.433 0-28.207 8.953-54.262 23.934-75.85 3.348 1.555 6.986 2.449 10.791 2.449 6.864 0 13.323-2.674 18.182-7.532 21.62-21.639 50.374-33.555 80.965-33.555 30.489 0 59.185 11.858 80.792 33.387 4.852 4.827 11.292 7.494 18.137 7.494 3.766 0 7.372-.868 10.694-2.397 15.045 21.613 24.03 47.732 24.03 76.004 0 2.153-.096 4.3-.199 6.44-5.797-4.589-12.41-8.278-19.647-10.9-.938-4.036-2.661-7.892-5.135-11.369-4.974-6.992-12.378-11.626-20.842-13.053-1.774-.296-3.586-.45-5.373-.45-15.726 0-29.043 11.266-31.652 26.793l-18.949 112.494c-2.937 17.475 8.888 34.088 26.356 37.031 1.767.296 3.58.443 5.36.443 11.337 0 21.344-5.9 27.07-14.975 34.197-.431 63.034-25.039 68.729-58.863 3.4-20.185-2.211-40.012-14.043-55.179zm-231.25-34.622c1.086-.186 2.172-.276 3.233-.276 9.435 0 17.417 6.767 18.978 16.08l18.946 112.495c1.761 10.489-5.334 20.457-15.816 22.218-8.638 1.459-16.633-3.072-20.315-10.334l-.302-.662c-.36-.778-.623-1.478-.868-2.172-.276-.868-.566-1.729-.72-2.641l-18.946-112.503c0-.006 0-.013 0-.019-.154-.925-.161-1.832-.186-2.751.006-.713.026-1.459.109-2.294l.064-.649c1.093-8.156 7.295-15.052 15.823-16.492zm-28.272 25.611 9.261 54.982 9.261 54.982c-25.765-2.519-46.871-21.883-51.254-47.906-2.044-12.147-.077-24.126 4.942-34.563 2.905 11.202 7.095 22.057 12.552 32.25 1.684 3.117 5.566 4.293 8.702 2.629 3.123-1.684 4.306-5.572 2.629-8.702-6.819-12.712-11.459-26.543-13.863-40.804 4.981-5.297 10.951-9.712 17.77-12.868zm204.052-99.609c-24.036-23.946-55.958-37.134-89.866-37.134-34.024 0-66.01 13.252-90.053 37.321-4.859 4.859-13.323 4.859-18.182 0-5.007-5.013-5.013-13.162-.006-18.175 28.908-28.921 67.347-44.853 108.241-44.853 40.759 0 79.121 15.849 108.009 44.622 2.436 2.423 3.779 5.649 3.785 9.088.006 3.438-1.324 6.665-3.753 9.1-4.839 4.857-13.31 4.883-18.175.031zm-29.518 224.515c-10.482-1.761-17.571-11.729-15.81-22.218l18.946-112.495c1.562-9.312 9.544-16.08 18.972-16.08 1.067 0 2.153.09 3.239.276 8.528 1.44 14.724 8.323 15.816 16.472l.071.668c.084.835.109 1.575.109 2.294-.019.919-.026 1.832-.18 2.77l-18.946 112.489c-.006.026-.019.058-.019.084-.154.887-.431 1.716-.694 2.545-.244.694-.514 1.408-.874 2.192l-.36.771c-3.702 7.211-11.645 11.684-20.27 10.232zm86.351-62.848c-4.383 26.016-25.489 45.393-51.248 47.899l9.261-54.975 9.255-54.975c6.819 3.149 12.789 7.571 17.764 12.854-2.41 14.313-7.082 28.195-13.933 40.958-1.684 3.123-.508 7.025 2.622 8.702.964.521 2.012.765 3.033.765 2.288 0 4.505-1.221 5.668-3.387 5.501-10.244 9.724-21.151 12.642-32.404 5.013 10.436 6.98 22.416 4.936 34.563z" fill="#507299"/></svg>