<svg enable-background="new 0 0 986.8 986.8" height="512" viewBox="0 0 986.8 986.8" width="512" xmlns="http://www.w3.org/2000/svg"><g fill="#577ca1" transform="matrix(-1 0 0 -1 986.8 986.8)"><path d="m399.8 164.649h-289.3c-22.1 0-40 17.9-40 40s17.9 40 40 40h289.3c22.101 0 40-17.9 40-40 0-22.099-17.9-40-40-40z"/><path d="m399.8 450.85h-193.3c-22.1 0-40 17.9-40 40 0 22.099 17.9 40 40 40h193.3c22.101 0 40-17.9 40-40s-17.9-40-40-40z"/><path d="m399.8 307.75h-359.8c-22.1 0-40 17.9-40 40s17.9 40 40 40h359.8c22.101 0 40-17.9 40-40s-17.9-40-40-40z"/><path d="m399.8 594.05h-359.8c-22.1 0-40 17.898-40 40 0 22.1 17.9 40 40 40h359.8c22.101 0 40-17.9 40-40 0-22.101-17.9-40-40-40z"/><path d="m399.8 737.15h-359.8c-22.1 0-40 17.9-40 40s17.9 40 40 40h359.8c22.101 0 40-17.9 40-40s-17.9-40-40-40z"/><path d="m926.8 160.25h-354.4c-33.101 0-60 26.9-60 60v546.3c0 33.1 26.899 60 60 60h354.4c33.101 0 60-26.9 60-60v-546.3c0-33.2-26.8-60-60-60z"/></g></svg>