<svg xmlns="http://www.w3.org/2000/svg" width="320" height="196" fill="#99a2ad">    <path fill="none" d="M-1-1h322v198H-1z"/>    <path d="M51.137826 186.7271h18v7.35h-18zm-42.2260218.20397557h23.00001526v7.34996033H1.56182098V.91115622h164.85001374v7.34998746H8.9118042M317.9519043.91115622V194.2810359H156.41183472v-7.34996033h154.18008423V8.26114367h-28.18005372V.91115623M129.217826 186.7271h10.42v7.35h-10.42z"/>  <path d="M39.416826 31.4071v134.47s113.611 17.349 108.675-74.504c-3.659-68.112-108.675-59.966-108.675-59.966zm239.628 0v134.47s-113.611 17.349-108.675-74.504c3.659-68.112 108.675-59.966 108.675-59.966z" stroke-miterlimit="10" stroke-width="8" stroke="#99a2ad" fill="none"/>  <path d="M78.137826 186.7451h36.609v7.271h-36.609zm97.136-185.786h30.169v7.271h-30.169zm43.167.166h28.971v7.271h-28.971zm42.735 0h11.236v7.271h-11.236z"/></svg>