<svg xmlns="http://www.w3.org/2000/svg" width="320" height="320" fill="#99a2ad">    <path fill="none" d="M-1-1h582v402H-1z"/>    <path d="M160.051719 315.045062c-85.467563 0-155-69.532436-155-155s69.532436-155 155-155 155 69.532436 155 155-69.532436 155-155 155zm0-302.10909c-81.116291 0-147.109091 65.9928-147.109091 147.109091s65.9928 147.109091 147.109091 147.109091 147.109091-65.9928 147.109091-147.109091-65.9928-147.109091-147.109091-147.109091z"/>  <path d="M219.55481 112.553062c-1.850982 2.831709-2.098982 5.886618 1.517309 8.432 47.760291 8.947164 81.5796 27.881964 81.5796 49.205454 0 29.636-65.302909 54.672727-142.6 54.672727s-142.6-25.036727-142.6-54.672727c0-22.241091 36.805454-41.872545 87.835963-50.293273 1.415855-.862364 2.784364-1.801382 4.037891-2.880182-.152182-1.057382-.196145-2.130545-.124-3.196945-1.0664-.288582-1.967091-.943527-2.806909-1.717964-.140909-.129636-.282945-.255891-.424982-.381018-.029309 0-.058618.004509-.087927.004509-.051855 0-.098073-.013527-.1488-.014655-56.768327 8.879527-96.173273 31.403564-96.173273 58.479527 0 35.082982 66.103273 62.563636 150.490909 62.563636S310.5415 205.273497 310.5415 170.190515c.001127-26.246291-37.014-48.224727-90.986691-57.637454z"/>  <path d="M296.41001 213.36168c-7.797345 24.2668-67.064836 43.844145-136.359418 43.844145-68.995854 0-128.050291-19.409382-136.255709-43.530764-2.668255-.158945-5.345527-.412582-8.028436-.737236 6.304836 29.186218 67.405273 51.378836 144.284145 51.378836 76.620727 0 137.567854-22.043818 144.218763-51.084618-2.580327.118364-5.210255.169091-7.859345.129636z"/>  <path d="M280.391465 243.798044c-6.913564 24.2668-59.465891 43.844145-120.907891 43.844145-61.177091 0-113.541163-19.409382-120.816582-43.530764-2.366145-.158945-4.739055-.412582-7.118727-.737236 5.590145 29.186218 59.766873 51.378836 127.935309 51.378836 67.938473 0 121.979927-22.043818 127.877818-51.084618-2.289491.118364-4.620691.169091-6.969927.129636zM203.292774 94.031972V69.326663c0-1.159964-.565891-2.265818-1.483491-2.939927-.943527-.674109-2.1576-.890545-3.263455-.539964l-73.605273 23.384145c-1.510545.485855-2.535236 1.888182-2.535236 3.478764V164.7503c-3.8564-2.670509-8.792727-4.126945-13.971418-4.126945-5.475164 0-10.680909 1.645818-14.645527 4.611673-4.261091 3.209345-6.608073 7.5516-6.608073 12.271491s2.346982 9.062145 6.608073 12.271491c3.964618 2.966982 9.143309 4.611673 14.645527 4.611673 5.502218 0 10.680909-1.644691 14.645527-4.611673 4.261091-3.209345 6.608073-7.5516 6.608073-12.271491v-57.395091l66.323091-21.091273v42.236654c-3.8564-2.670509-8.792727-4.126945-13.971418-4.126945-5.475164 0-10.680909 1.645818-14.645527 4.611673-4.261091 3.209345-6.608073 7.5516-6.608073 12.271491s2.346982 9.062145 6.608073 12.271491c3.964618 2.966982 9.143309 4.611673 14.645527 4.611673 5.502218 0 10.680909-1.645818 14.645527-4.611673 4.261091-3.209345 6.608073-7.5516 6.608073-12.271491V94.031973zm-94.857745 93.077782c-7.578655 0-13.971418-4.396364-13.971418-9.602109s6.392764-9.602109 13.971418-9.602109 13.971418 4.396364 13.971418 9.602109c-.001127 5.2328-6.392764 9.602109-13.971418 9.602109zm21.252473-74.655891V95.353136l66.323091-21.064218v17.0996l-66.323091 21.065345zm52.378727 51.164654c-7.578655 0-13.971418-4.396364-13.971418-9.602109s6.392764-9.602109 13.971418-9.602109c7.578655 0 13.971418 4.396364 13.971418 9.602109-.027055 5.205745-6.419818 9.602109-13.971418 9.602109z"/></svg>