<svg xmlns="http://www.w3.org/2000/svg" width="320" height="320" fill="#99a2ad">    <path fill="none" d="M-1-1h582v402H-1z"/>    <path d="M19.919657 179.109414c-3.04877-.59884-5.35279 1.41591-5.16121 4.51289.18143 3.09444 2.78614 6.07343 5.83364 6.67228 48.59761 9.56753 90.55974 57.56376 93.52984 106.9797.1865 3.10079 2.81152 6.10261 5.85394 6.69638 1.51868.29815 2.85592-.04567 3.78337-.85766.94648-.82721 1.46666-2.1061 1.37785-3.65522-3.34312-55.60737-50.55527-109.60852-105.21743-120.34836v-.00001zm0 0"/>  <path d="M9.282587 213.413454c-3.04243-.5925-5.36548 1.43748-5.17897 4.52811.1865 3.10079 2.81152 6.10261 5.85394 6.69638 33.47683 6.58219 62.37607 39.63781 64.42888 73.69318.18143 3.09444 2.78614 6.07343 5.83364 6.67228 1.51868.29815 2.86861-.06851 3.79605-.87923.94648-.82721 1.47173-2.09976 1.38292-3.64888-2.42328-40.2468-36.55224-79.28322-76.11646-87.06184zm10.7779-76.13803c-3.04369-.60265-5.34772 1.41083-5.16121 4.51162.18524 3.09064 2.78995 6.06963 5.83364 6.67228 33.93357 6.66213 66.62125 26.35415 92.05304 55.4437 25.43305 29.08955 40.58301 64.11296 42.65359 98.63269.19158 3.09698 2.79502 6.07597 5.83364 6.67228 1.52375.29435 2.85465-.05582 3.7821-.86655.94648-.82721 1.47173-2.09976 1.37911-3.64507-2.23678-37.51394-18.69607-75.58486-46.33038-107.19285-27.63304-31.60545-63.16522-53.00266-100.04353-60.2281zm277.85541 8.14147c3.04877.59884 5.35279-1.41591 5.16121-4.51289-.18143-3.09444-2.78614-6.07343-5.83364-6.67228-48.59761-9.56753-90.55974-57.56376-93.52984-106.9797-.1865-3.10079-2.81152-6.10261-5.85394-6.69638-1.51868-.29815-2.85592.04567-3.78337.85766-.94648.82721-1.46666 2.1061-1.37785 3.65522 3.34312 55.60737 50.55527 109.60852 105.21743 120.34836v.00001zm0 0"/>  <path d="M308.551697 111.112844c3.04243.5925 5.36548-1.43748 5.18024-4.52811-.1865-3.10079-2.81152-6.10261-5.85394-6.69638-33.47683-6.58219-62.37607-39.63781-64.42888-73.69318-.18143-3.09444-2.78614-6.07343-5.83364-6.67228-1.51868-.29815-2.86861.06851-3.79605.87923-.94648.82721-1.47173 2.09976-1.38292 3.64888 2.42328 40.2468 36.55224 79.28322 76.11519 87.06184zm-10.77663 76.13804c3.04369.60265 5.34772-1.41083 5.16121-4.51289-.18524-3.09064-2.78995-6.06963-5.83364-6.67228-33.93357-6.66213-66.62125-26.35415-92.05304-55.4437-25.43305-29.08955-40.58301-64.11296-42.65359-98.63269-.19158-3.09698-2.79502-6.07597-5.83364-6.67228-1.52375-.29435-2.85465.05582-3.7821.86655-.94648.82721-1.47173 2.09976-1.37911 3.64507 2.23678 37.51394 18.69607 75.58486 46.33038 107.19285 27.63304 31.60672 63.16395 53.00392 100.04353 60.22937z"/>  <circle fill="none" stroke="#99a2ad" stroke-width="8" stroke-miterlimit="10" r="20.855459" cy="168.167844" cx="163.443987"/></svg>